<svg xmlns="http://www.w3.org/2000/svg" xmlns:xlink="http://www.w3.org/1999/xlink" viewBox="0 0 681.13 808.49"><defs><style>.cls-1{fill:url(#linear-gradient);}.cls-2{fill:url(#linear-gradient-2);}.cls-3{fill:url(#linear-gradient-3);}.cls-4{fill:url(#linear-gradient-4);}</style><linearGradient id="linear-gradient" x1="569.59" y1="423.86" x2="476.16" y2="97.01" gradientUnits="userSpaceOnUse"><stop offset="0" stop-color="#b348ff"/><stop offset="0.41" stop-color="#8500db"/></linearGradient><linearGradient id="linear-gradient-2" x1="284.06" y1="-22.64" x2="486.32" y2="798.24" gradientUnits="userSpaceOnUse"><stop offset="0" stop-color="#b348ff"/><stop offset="1" stop-color="#8500db"/></linearGradient><linearGradient id="linear-gradient-3" x1="120.57" y1="534.83" x2="324.83" y2="10.35" gradientUnits="userSpaceOnUse"><stop offset="0" stop-color="#b348ff"/><stop offset="0.83" stop-color="#8500db"/></linearGradient><linearGradient id="linear-gradient-4" x1="593.43" y1="797.15" x2="623.95" y2="511.74" xlink:href="#linear-gradient-2"/></defs><g id="Layer_2" data-name="Layer 2"><g id="Layer_1-2" data-name="Layer 1"><circle class="cls-1" cx="551.88" cy="361.91" r="76.42"/><path class="cls-2" d="M601.27,801.43l-22.59,5.71c-12.56.62-30.38,1.09-55.23,1.34-56,.56-101.44-37.61-133.73-79.84-41.84-54.72-65.76-113.87-78.5-181l-25.1-132.3L241.06,177.76c-.22-1.14-1.71-5.12-1.18-6.23L320.66,0s10.58,78.07,80.71,448.57c41.89,221.28,100.29,303.32,140.55,333.51l0,0c3,2.25,5.9,4.21,8.69,5.92l0,0C573,801.76,588,799.22,588,799.22S596,800.15,601.27,801.43Z"/><path class="cls-3" d="M247.88,603.38s-173.34-45-108.51-197.15S320.65,0,320.65,0H209.5S12.35,409.55,1.76,444.94,22.93,614,247.88,603.38Z"/><path class="cls-4" d="M601.28,801.43h0l-22.59,5.71-28-19.09,0,0L542,782.11l0,0c112.76-92.57,10-293.82,10-293.82l76.41-30.43C761.29,758.2,601.28,801.43,601.28,801.43Z"/></g></g></svg>